<?xml version="1.0" encoding="utf-8"?>
<!-- Generator: Adobe Illustrator 25.1.0, SVG Export Plug-In . SVG Version: 6.00 Build 0)  -->
<svg version="1.1" id="Layer_1" xmlns="http://www.w3.org/2000/svg" xmlns:xlink="http://www.w3.org/1999/xlink" x="0px" y="0px"
	 viewBox="0 0 400 300" style="enable-background:new 0 0 400 300;" xml:space="preserve">
<style type="text/css">
	.st0{fill:#FFFFFF;stroke:#000000;stroke-miterlimit:10;}
	.st1{fill:none;stroke:#000000;stroke-miterlimit:10;}
</style>
<g>
	<line class="st0" x1="70" y1="91" x2="83" y2="91"/>
	<line class="st0" x1="83" y1="91" x2="115" y2="175"/>
	<line class="st1" x1="114.5" y1="174.5" x2="213.5" y2="174.5"/>
	<line class="st1" x1="46.5" y1="106.5" x2="69.5" y2="106.5"/>
	<line class="st1" x1="76.5" y1="106.5" x2="82.5" y2="106.5"/>
	<line class="st1" x1="46.5" y1="117.5" x2="85.5" y2="117.5"/>
	<line class="st1" x1="46.5" y1="127.5" x2="52.5" y2="127.5"/>
	<line class="st1" x1="58.5" y1="127.5" x2="88.5" y2="127.5"/>
	<line class="st1" x1="47.5" y1="140.5" x2="78.5" y2="140.5"/>
	<line class="st1" x1="84" y1="140.5" x2="93" y2="140.5"/>
	<line class="st1" x1="47.5" y1="151.5" x2="52.5" y2="151.5"/>
	<line class="st1" x1="59.5" y1="151.5" x2="65.5" y2="151.5"/>
	<line class="st1" x1="72.5" y1="150.5" x2="96.5" y2="150.5"/>
	<line class="st1" x1="48.5" y1="164.5" x2="52.5" y2="164.5"/>
	<line class="st1" x1="59.5" y1="164.5" x2="64.5" y2="164.5"/>
	<line class="st1" x1="70.5" y1="164.5" x2="76.5" y2="164.5"/>
	<line class="st1" x1="82.5" y1="164.5" x2="102.5" y2="164.5"/>
	<g>
		<g>
			<path d="M145.42,128.87h10.86l-0.4,1.97h-8.54l-1.35,6.83h7.23l-0.4,1.97h-7.2l-1.8,8.92h-2.33L145.42,128.87z"/>
			<path d="M155.8,143.62c0-5.59,3.84-10.01,7.87-10.01c1.56,0,2.85,0.87,3.54,2.2h0.1l0.58-1.84h1.87l-2.92,14.58h-1.89l0.23-2.16
				h-0.1c-1.43,1.49-3.25,2.52-5.07,2.52C157.44,148.92,155.8,147.05,155.8,143.62z M165.41,144.21l1.34-6.51
				c-0.85-1.54-1.88-2.16-2.99-2.16c-2.92,0-5.6,3.71-5.6,7.75c0,2.51,1.03,3.7,2.67,3.7C162.38,146.99,163.99,146.1,165.41,144.21z
				"/>
			<path d="M170.62,146.17l1.43-1.14c0.89,1.26,2.21,2.12,3.76,2.12c1.66,0,3.08-1.1,3.08-2.42c0-1.05-0.64-1.67-2.67-2.78
				c-2.25-1.22-3.33-2.33-3.33-3.97c0-2.58,2.28-4.36,5-4.36c1.78,0,3.23,0.81,4.3,1.94l-1.33,1.28c-0.76-0.8-1.71-1.43-3.01-1.43
				c-1.57,0-2.77,1.05-2.77,2.29c0,1.22,1.26,1.84,2.59,2.58c2.62,1.42,3.42,2.55,3.42,4.12c0,2.73-2.32,4.51-5.46,4.51
				C173.66,148.92,171.6,147.69,170.62,146.17z"/>
			<path d="M184.86,145.66c0-0.58,0.08-1.05,0.16-1.6l1.71-8.23h-2.15l0.34-1.72l2.27-0.14l1.09-4.03h1.93l-0.8,4.03h3.69
				l-0.38,1.86h-3.74l-1.71,8.33c-0.06,0.36-0.1,0.7-0.1,1.07c0,1.2,0.48,1.81,1.86,1.81c0.59,0,1.1-0.23,1.54-0.45l0.5,1.65
				c-0.65,0.3-1.61,0.66-2.76,0.66C185.8,148.92,184.86,147.48,184.86,145.66z"/>
		</g>
	</g>
	<g>
		<g>
			<path d="M119.09,164.2c0-6.26,4.02-12.47,10.46-12.47c2.35,0,3.97,1.25,4.96,2.91l-1.65,1.23c-0.76-1.27-1.84-2.13-3.44-2.13
				c-4.94,0-7.95,5.46-7.95,10.23c0,3.5,1.46,6.17,5.24,6.17c1.42,0,2.58-0.52,3.35-1.2l1.1-5.4h-4.06l0.38-1.93h6.17l-1.71,8.52
				c-1.42,1.18-3.32,2-5.58,2C121.62,172.13,119.09,168.98,119.09,164.2z"/>
			<path d="M138.84,157.19h1.89l-0.35,2.79h0.12c1.18-1.77,2.73-3.15,4.52-3.15c0.54,0,0.98,0.08,1.39,0.26l-0.8,2.05
				c-0.31-0.16-0.74-0.24-1.26-0.24c-1.45,0-3.06,1.27-4.31,3.67l-1.81,9.2h-2.3L138.84,157.19z"/>
			<path d="M146.43,166.27c0-5.52,3.89-9.44,7.88-9.44c3.15,0,5.2,2.22,5.2,5.86c0,5.52-3.89,9.44-7.88,9.44
				C148.49,172.13,146.43,169.92,146.43,166.27z M157.19,162.83c0-2.64-1.11-4.09-3.12-4.09c-2.69,0-5.32,3.33-5.32,7.4
				c0,2.64,1.11,4.09,3.12,4.09C154.56,170.23,157.19,166.9,157.19,162.83z"/>
			<path d="M161.84,166.27c0-5.42,3.88-9.44,8.13-9.44c1.73,0,2.91,0.77,3.78,1.78l-1.35,1.42c-0.77-0.88-1.44-1.29-2.57-1.29
				c-2.92,0-5.64,3.39-5.64,7.4c0,2.64,1.14,4.09,3.45,4.09c1.28,0,2.33-0.61,3.22-1.29l1.03,1.5c-1.06,0.8-2.55,1.7-4.68,1.7
				C164.03,172.13,161.84,170.01,161.84,166.27z"/>
			<path d="M182.67,156.83c3.28,0,4.52,2.28,4.52,5.28c0,1.16-0.33,2.31-0.54,2.84h-9.46c-0.53,3.76,1.42,5.36,3.95,5.36
				c1.14,0,2.35-0.59,3.28-1.26l0.88,1.52c-1.16,0.84-2.82,1.56-4.71,1.56c-3.43,0-5.71-2.19-5.71-6.1
				C174.89,160.55,178.88,156.83,182.67,156.83z M185.07,163.4c0.1-0.47,0.16-0.94,0.16-1.49c0-1.67-0.72-3.24-2.82-3.24
				c-2.13,0-4.24,1.86-4.97,4.73H185.07z"/>
			<path d="M192.02,157.19h1.89l-0.35,2.79h0.12c1.18-1.77,2.73-3.15,4.52-3.15c0.54,0,0.98,0.08,1.39,0.26l-0.8,2.05
				c-0.31-0.16-0.74-0.24-1.26-0.24c-1.45,0-3.06,1.27-4.31,3.67l-1.81,9.2h-2.3L192.02,157.19z"/>
			<path d="M196.6,177.63l0.76-1.71c0.34,0.18,0.68,0.26,1.06,0.26c1.47,0,2.82-1.3,3.81-3.32l0.53-1.06l-2.49-14.61h2.29l1.15,8.18
				c0.2,1.35,0.37,3,0.48,4.36h0.12c0.68-1.38,1.43-2.95,2.15-4.36l4.22-8.18h2.27l-8.57,15.82c-1.55,2.83-3.3,5.04-6.1,5.04
				C197.87,178.06,197.17,177.91,196.6,177.63z"/>
		</g>
	</g>
	<circle cx="132.5" cy="194.5" r="10.5"/>
	<circle cx="185.5" cy="194.5" r="10.5"/>
</g>
</svg>
