<?xml version="1.0" encoding="utf-8"?>
<!-- Generator: Adobe Illustrator 25.1.0, SVG Export Plug-In . SVG Version: 6.00 Build 0)  -->
<svg version="1.1" id="Layer_1" xmlns="http://www.w3.org/2000/svg" xmlns:xlink="http://www.w3.org/1999/xlink" x="0px" y="0px"
	 viewBox="0 0 400 300" style="enable-background:new 0 0 400 300;" xml:space="preserve">
<style type="text/css">
	.st0{fill:#FFFFFF;stroke:#000000;stroke-width:0.5387;stroke-miterlimit:10;}
	.st1{fill:none;stroke:#000000;stroke-width:0.5387;stroke-miterlimit:10;}
</style>
<g>
	<line class="st0" x1="58.71" y1="91" x2="65.33" y2="91"/>
	<line class="st0" x1="65.33" y1="91" x2="81.62" y2="138.89"/>
	<line class="st1" x1="81.36" y1="138.61" x2="131.75" y2="138.61"/>
	<line class="st1" x1="46.75" y1="99.84" x2="58.46" y2="99.84"/>
	<line class="st1" x1="62.02" y1="99.84" x2="65.07" y2="99.84"/>
	<line class="st1" x1="46.75" y1="106.11" x2="66.6" y2="106.11"/>
	<line class="st1" x1="46.75" y1="111.81" x2="49.8" y2="111.81"/>
	<line class="st1" x1="52.86" y1="111.81" x2="68.13" y2="111.81"/>
	<line class="st1" x1="47.26" y1="119.22" x2="63.04" y2="119.22"/>
	<line class="st1" x1="65.84" y1="119.22" x2="70.42" y2="119.22"/>
	<line class="st1" x1="47.26" y1="125.5" x2="49.8" y2="125.5"/>
	<line class="st1" x1="53.37" y1="125.5" x2="56.42" y2="125.5"/>
	<line class="st1" x1="59.98" y1="124.93" x2="72.2" y2="124.93"/>
	<line class="st1" x1="47.77" y1="132.91" x2="49.8" y2="132.91"/>
	<line class="st1" x1="53.37" y1="132.91" x2="55.91" y2="132.91"/>
	<line class="st1" x1="58.97" y1="132.91" x2="62.02" y2="132.91"/>
	<line class="st1" x1="65.07" y1="132.91" x2="75.25" y2="132.91"/>
	<g>
		<g>
			<path d="M97.1,112.59h5.53l-0.2,1.12h-4.35l-0.69,3.89h3.68l-0.2,1.12H97.2l-0.92,5.09h-1.19L97.1,112.59z"/>
			<path d="M102.38,121c0-3.19,1.96-5.71,4-5.71c0.8,0,1.45,0.5,1.8,1.26h0.05l0.3-1.05h0.95l-1.49,8.31h-0.96l0.12-1.23h-0.05
				c-0.73,0.85-1.65,1.44-2.58,1.44C103.22,124.02,102.38,122.96,102.38,121z M107.28,121.34l0.68-3.71
				c-0.43-0.88-0.96-1.23-1.52-1.23c-1.48,0-2.85,2.11-2.85,4.42c0,1.43,0.53,2.11,1.36,2.11
				C105.73,122.92,106.55,122.42,107.28,121.34z"/>
			<path d="M109.93,122.45l0.73-0.65c0.45,0.72,1.13,1.21,1.91,1.21c0.84,0,1.57-0.63,1.57-1.38c0-0.6-0.32-0.95-1.36-1.58
				c-1.14-0.7-1.7-1.33-1.7-2.27c0-1.47,1.16-2.48,2.54-2.48c0.91,0,1.65,0.46,2.19,1.11l-0.68,0.73c-0.39-0.45-0.87-0.82-1.53-0.82
				c-0.8,0-1.41,0.6-1.41,1.31c0,0.7,0.64,1.05,1.32,1.47c1.33,0.81,1.74,1.45,1.74,2.35c0,1.56-1.18,2.57-2.78,2.57
				C111.47,124.02,110.42,123.32,109.93,122.45z"/>
			<path d="M117.17,122.17c0-0.33,0.04-0.6,0.08-0.91l0.87-4.69h-1.09l0.17-0.98l1.16-0.08l0.56-2.3h0.98l-0.41,2.3h1.88l-0.19,1.06
				h-1.9l-0.87,4.75c-0.03,0.21-0.05,0.4-0.05,0.61c0,0.69,0.24,1.03,0.95,1.03c0.3,0,0.56-0.13,0.78-0.26l0.25,0.94
				c-0.33,0.17-0.82,0.38-1.4,0.38C117.65,124.02,117.17,123.2,117.17,122.17z"/>
		</g>
	</g>
	<g>
		<g>
			<path d="M83.7,132.73c0-3.57,2.05-7.11,5.33-7.11c1.2,0,2.02,0.71,2.52,1.66l-0.84,0.7c-0.39-0.72-0.94-1.21-1.75-1.21
				c-2.52,0-4.05,3.11-4.05,5.83c0,2,0.74,3.52,2.67,3.52c0.72,0,1.31-0.3,1.71-0.68l0.56-3.08h-2.06l0.19-1.1h3.14l-0.87,4.86
				c-0.73,0.67-1.69,1.14-2.84,1.14C84.98,137.26,83.7,135.46,83.7,132.73z"/>
			<path d="M93.75,128.74h0.96l-0.18,1.59h0.06c0.6-1.01,1.39-1.79,2.3-1.79c0.27,0,0.5,0.05,0.71,0.15l-0.41,1.17
				c-0.16-0.09-0.38-0.14-0.64-0.14c-0.74,0-1.56,0.73-2.2,2.09l-0.92,5.24h-1.17L93.75,128.74z"/>
			<path d="M97.61,133.92c0-3.15,1.98-5.38,4.01-5.38c1.6,0,2.65,1.26,2.65,3.34c0,3.15-1.98,5.38-4.01,5.38
				C98.66,137.26,97.61,136,97.61,133.92z M103.09,131.95c0-1.5-0.56-2.33-1.59-2.33c-1.37,0-2.71,1.9-2.71,4.22
				c0,1.5,0.56,2.33,1.59,2.33C101.75,136.17,103.09,134.28,103.09,131.95z"/>
			<path d="M105.46,133.92c0-3.09,1.97-5.38,4.14-5.38c0.88,0,1.48,0.44,1.92,1.02l-0.69,0.81c-0.39-0.5-0.73-0.74-1.31-0.74
				c-1.49,0-2.87,1.93-2.87,4.22c0,1.5,0.58,2.33,1.76,2.33c0.65,0,1.19-0.35,1.64-0.74l0.53,0.85c-0.54,0.46-1.3,0.97-2.38,0.97
				C106.57,137.26,105.46,136.05,105.46,133.92z"/>
			<path d="M116.06,128.53c1.67,0,2.3,1.3,2.3,3.01c0,0.66-0.17,1.32-0.27,1.62h-4.82c-0.27,2.15,0.72,3.06,2.01,3.06
				c0.58,0,1.2-0.34,1.67-0.72l0.45,0.87c-0.59,0.48-1.43,0.89-2.4,0.89c-1.75,0-2.91-1.25-2.91-3.48
				C112.1,130.66,114.13,128.53,116.06,128.53z M117.28,132.28c0.05-0.27,0.08-0.54,0.08-0.85c0-0.95-0.37-1.85-1.43-1.85
				c-1.08,0-2.16,1.06-2.53,2.7H117.28z"/>
			<path d="M120.82,128.74h0.96l-0.18,1.59h0.06c0.6-1.01,1.39-1.79,2.3-1.79c0.27,0,0.5,0.05,0.71,0.15l-0.41,1.17
				c-0.16-0.09-0.38-0.14-0.64-0.14c-0.74,0-1.56,0.73-2.2,2.09l-0.92,5.24h-1.17L120.82,128.74z"/>
			<path d="M123.15,140.39l0.39-0.98c0.17,0.1,0.35,0.15,0.54,0.15c0.75,0,1.44-0.74,1.94-1.89l0.27-0.6l-1.27-8.33h1.16l0.58,4.66
				c0.1,0.77,0.19,1.71,0.25,2.49h0.06c0.34-0.79,0.73-1.68,1.09-2.49l2.15-4.66h1.16l-4.36,9.02c-0.79,1.61-1.68,2.88-3.11,2.88
				C123.79,140.64,123.44,140.55,123.15,140.39z"/>
		</g>
	</g>
	<ellipse cx="90.52" cy="150.01" rx="5.34" ry="5.99"/>
	<ellipse cx="117.5" cy="150.01" rx="5.34" ry="5.99"/>
</g>
</svg>
