<?xml version="1.0" encoding="utf-8"?>
<!-- Generator: Adobe Illustrator 25.1.0, SVG Export Plug-In . SVG Version: 6.00 Build 0)  -->
<svg version="1.1" id="Layer_1" xmlns="http://www.w3.org/2000/svg" xmlns:xlink="http://www.w3.org/1999/xlink" x="0px" y="0px"
	 viewBox="0 0 50 50" style="enable-background:new 0 0 50 50;" xml:space="preserve">
<g>
	<g>
		<g>
			<path d="M15.39,15.43h9.97l-0.35,1.65h-8.02l-1.12,5.67h6.7l-0.35,1.65h-6.65l-1.5,7.42h-1.95L15.39,15.43z"/>
			<path d="M26.66,25.51c0-5.22,3.32-10.37,8.62-10.37c1.95,0,3.3,1.02,4.12,2.42l-1.38,1.02c-0.65-1.05-1.55-1.75-2.87-1.75
				c-4.02,0-6.5,4.52-6.5,8.5c0,2.9,1.2,5.12,4.25,5.12c1.17,0,2.15-0.42,2.77-1l0.92-4.47h-3.38l0.33-1.63h5.15l-1.42,7.1
				c-1.2,1-2.77,1.67-4.65,1.67C28.74,32.13,26.66,29.51,26.66,25.51z"/>
		</g>
	</g>
</g>
</svg>
